<mxfile host="app.diagrams.net" modified="2023-11-09T09:21:25.746Z" agent="Mozilla/5.0 (X11; Linux x86_64) AppleWebKit/537.36 (KHTML, like Gecko) Chrome/119.0.0.0 Safari/537.36" etag="wY_YHgFwQE43wzKohFAR" version="22.0.8" type="github">
  <diagram name="Page-1" id="5IGVh0U7Q5zUa1CHTGQf">
    <mxGraphModel dx="1864" dy="907" grid="1" gridSize="10" guides="1" tooltips="1" connect="1" arrows="1" fold="1" page="1" pageScale="1" pageWidth="850" pageHeight="1100" math="0" shadow="0">
      <root>
        <mxCell id="0" />
        <mxCell id="1" parent="0" />
        <mxCell id="4iAux4aXh2Ygba42_RWY-2" value="n" style="rounded=0;whiteSpace=wrap;html=1;" vertex="1" parent="1">
          <mxGeometry x="500" y="75" width="120" height="40" as="geometry" />
        </mxCell>
        <mxCell id="4iAux4aXh2Ygba42_RWY-3" value="Head" style="text;html=1;strokeColor=none;fillColor=none;align=center;verticalAlign=middle;whiteSpace=wrap;rounded=0;" vertex="1" parent="1">
          <mxGeometry x="525" y="45" width="60" height="30" as="geometry" />
        </mxCell>
        <mxCell id="4iAux4aXh2Ygba42_RWY-6" value="New node" style="text;html=1;strokeColor=none;fillColor=none;align=center;verticalAlign=middle;whiteSpace=wrap;rounded=0;" vertex="1" parent="1">
          <mxGeometry x="190" y="40" width="60" height="30" as="geometry" />
        </mxCell>
        <mxCell id="4iAux4aXh2Ygba42_RWY-13" style="edgeStyle=orthogonalEdgeStyle;rounded=0;orthogonalLoop=1;jettySize=auto;html=1;exitX=1;exitY=0.5;exitDx=0;exitDy=0;" edge="1" parent="1" source="4iAux4aXh2Ygba42_RWY-8">
          <mxGeometry relative="1" as="geometry">
            <mxPoint x="690" y="135" as="targetPoint" />
          </mxGeometry>
        </mxCell>
        <mxCell id="4iAux4aXh2Ygba42_RWY-8" value="next" style="rounded=0;whiteSpace=wrap;html=1;" vertex="1" parent="1">
          <mxGeometry x="500" y="115" width="120" height="40" as="geometry" />
        </mxCell>
        <mxCell id="4iAux4aXh2Ygba42_RWY-14" style="edgeStyle=orthogonalEdgeStyle;rounded=0;orthogonalLoop=1;jettySize=auto;html=1;exitX=0;exitY=0.5;exitDx=0;exitDy=0;" edge="1" parent="1" source="4iAux4aXh2Ygba42_RWY-9">
          <mxGeometry relative="1" as="geometry">
            <mxPoint x="440" y="175" as="targetPoint" />
          </mxGeometry>
        </mxCell>
        <mxCell id="4iAux4aXh2Ygba42_RWY-9" value="prev" style="rounded=0;whiteSpace=wrap;html=1;" vertex="1" parent="1">
          <mxGeometry x="500" y="155" width="120" height="40" as="geometry" />
        </mxCell>
        <mxCell id="4iAux4aXh2Ygba42_RWY-10" value="n" style="rounded=0;whiteSpace=wrap;html=1;" vertex="1" parent="1">
          <mxGeometry x="160" y="70" width="120" height="40" as="geometry" />
        </mxCell>
        <mxCell id="4iAux4aXh2Ygba42_RWY-11" value="next" style="rounded=0;whiteSpace=wrap;html=1;" vertex="1" parent="1">
          <mxGeometry x="160" y="110" width="120" height="40" as="geometry" />
        </mxCell>
        <mxCell id="4iAux4aXh2Ygba42_RWY-12" value="prev" style="rounded=0;whiteSpace=wrap;html=1;" vertex="1" parent="1">
          <mxGeometry x="160" y="150" width="120" height="40" as="geometry" />
        </mxCell>
        <mxCell id="4iAux4aXh2Ygba42_RWY-15" value="NULL" style="text;html=1;strokeColor=none;fillColor=none;align=center;verticalAlign=middle;whiteSpace=wrap;rounded=0;" vertex="1" parent="1">
          <mxGeometry x="680" y="120" width="60" height="30" as="geometry" />
        </mxCell>
        <mxCell id="4iAux4aXh2Ygba42_RWY-16" value="NULL" style="text;html=1;strokeColor=none;fillColor=none;align=center;verticalAlign=middle;whiteSpace=wrap;rounded=0;" vertex="1" parent="1">
          <mxGeometry x="390" y="160" width="60" height="30" as="geometry" />
        </mxCell>
        <mxCell id="4iAux4aXh2Ygba42_RWY-17" value="n" style="rounded=0;whiteSpace=wrap;html=1;" vertex="1" parent="1">
          <mxGeometry x="500" y="605" width="120" height="40" as="geometry" />
        </mxCell>
        <mxCell id="4iAux4aXh2Ygba42_RWY-20" style="edgeStyle=orthogonalEdgeStyle;rounded=0;orthogonalLoop=1;jettySize=auto;html=1;exitX=1;exitY=0.5;exitDx=0;exitDy=0;" edge="1" parent="1" source="4iAux4aXh2Ygba42_RWY-21">
          <mxGeometry relative="1" as="geometry">
            <mxPoint x="690" y="665" as="targetPoint" />
          </mxGeometry>
        </mxCell>
        <mxCell id="4iAux4aXh2Ygba42_RWY-21" value="next" style="rounded=0;whiteSpace=wrap;html=1;" vertex="1" parent="1">
          <mxGeometry x="500" y="645" width="120" height="40" as="geometry" />
        </mxCell>
        <mxCell id="4iAux4aXh2Ygba42_RWY-32" style="edgeStyle=orthogonalEdgeStyle;rounded=0;orthogonalLoop=1;jettySize=auto;html=1;exitX=0;exitY=0.5;exitDx=0;exitDy=0;entryX=1;entryY=0.5;entryDx=0;entryDy=0;" edge="1" parent="1" source="4iAux4aXh2Ygba42_RWY-23" target="4iAux4aXh2Ygba42_RWY-24">
          <mxGeometry relative="1" as="geometry" />
        </mxCell>
        <mxCell id="4iAux4aXh2Ygba42_RWY-23" value="prev" style="rounded=0;whiteSpace=wrap;html=1;" vertex="1" parent="1">
          <mxGeometry x="500" y="685" width="120" height="40" as="geometry" />
        </mxCell>
        <mxCell id="4iAux4aXh2Ygba42_RWY-24" value="n" style="rounded=0;whiteSpace=wrap;html=1;" vertex="1" parent="1">
          <mxGeometry x="160" y="600" width="120" height="40" as="geometry" />
        </mxCell>
        <mxCell id="4iAux4aXh2Ygba42_RWY-33" style="edgeStyle=orthogonalEdgeStyle;rounded=0;orthogonalLoop=1;jettySize=auto;html=1;exitX=1;exitY=0.5;exitDx=0;exitDy=0;entryX=0;entryY=0.5;entryDx=0;entryDy=0;" edge="1" parent="1" source="4iAux4aXh2Ygba42_RWY-25" target="4iAux4aXh2Ygba42_RWY-17">
          <mxGeometry relative="1" as="geometry">
            <Array as="points">
              <mxPoint x="370" y="660" />
              <mxPoint x="370" y="625" />
            </Array>
          </mxGeometry>
        </mxCell>
        <mxCell id="4iAux4aXh2Ygba42_RWY-25" value="next" style="rounded=0;whiteSpace=wrap;html=1;" vertex="1" parent="1">
          <mxGeometry x="160" y="640" width="120" height="40" as="geometry" />
        </mxCell>
        <mxCell id="4iAux4aXh2Ygba42_RWY-34" style="edgeStyle=orthogonalEdgeStyle;rounded=0;orthogonalLoop=1;jettySize=auto;html=1;exitX=0;exitY=0.5;exitDx=0;exitDy=0;" edge="1" parent="1" source="4iAux4aXh2Ygba42_RWY-26">
          <mxGeometry relative="1" as="geometry">
            <mxPoint x="120" y="700" as="targetPoint" />
          </mxGeometry>
        </mxCell>
        <mxCell id="4iAux4aXh2Ygba42_RWY-26" value="prev" style="rounded=0;whiteSpace=wrap;html=1;" vertex="1" parent="1">
          <mxGeometry x="160" y="680" width="120" height="40" as="geometry" />
        </mxCell>
        <mxCell id="4iAux4aXh2Ygba42_RWY-27" value="NULL" style="text;html=1;strokeColor=none;fillColor=none;align=center;verticalAlign=middle;whiteSpace=wrap;rounded=0;" vertex="1" parent="1">
          <mxGeometry x="680" y="650" width="60" height="30" as="geometry" />
        </mxCell>
        <mxCell id="4iAux4aXh2Ygba42_RWY-35" value="NULL" style="text;html=1;strokeColor=none;fillColor=none;align=center;verticalAlign=middle;whiteSpace=wrap;rounded=0;" vertex="1" parent="1">
          <mxGeometry x="70" y="686" width="60" height="30" as="geometry" />
        </mxCell>
        <mxCell id="4iAux4aXh2Ygba42_RWY-37" value="n" style="rounded=0;whiteSpace=wrap;html=1;" vertex="1" parent="1">
          <mxGeometry x="500" y="245" width="120" height="40" as="geometry" />
        </mxCell>
        <mxCell id="4iAux4aXh2Ygba42_RWY-38" value="Head" style="text;html=1;strokeColor=none;fillColor=none;align=center;verticalAlign=middle;whiteSpace=wrap;rounded=0;" vertex="1" parent="1">
          <mxGeometry x="525" y="215" width="60" height="30" as="geometry" />
        </mxCell>
        <mxCell id="4iAux4aXh2Ygba42_RWY-39" value="New node" style="text;html=1;strokeColor=none;fillColor=none;align=center;verticalAlign=middle;whiteSpace=wrap;rounded=0;" vertex="1" parent="1">
          <mxGeometry x="190" y="210" width="60" height="30" as="geometry" />
        </mxCell>
        <mxCell id="4iAux4aXh2Ygba42_RWY-40" style="edgeStyle=orthogonalEdgeStyle;rounded=0;orthogonalLoop=1;jettySize=auto;html=1;exitX=1;exitY=0.5;exitDx=0;exitDy=0;" edge="1" parent="1" source="4iAux4aXh2Ygba42_RWY-41">
          <mxGeometry relative="1" as="geometry">
            <mxPoint x="690" y="305" as="targetPoint" />
          </mxGeometry>
        </mxCell>
        <mxCell id="4iAux4aXh2Ygba42_RWY-41" value="next" style="rounded=0;whiteSpace=wrap;html=1;" vertex="1" parent="1">
          <mxGeometry x="500" y="285" width="120" height="40" as="geometry" />
        </mxCell>
        <mxCell id="4iAux4aXh2Ygba42_RWY-42" style="edgeStyle=orthogonalEdgeStyle;rounded=0;orthogonalLoop=1;jettySize=auto;html=1;exitX=0;exitY=0.5;exitDx=0;exitDy=0;entryX=1;entryY=0.5;entryDx=0;entryDy=0;" edge="1" parent="1" source="4iAux4aXh2Ygba42_RWY-43" target="4iAux4aXh2Ygba42_RWY-44">
          <mxGeometry relative="1" as="geometry">
            <mxPoint x="440" y="345" as="targetPoint" />
          </mxGeometry>
        </mxCell>
        <mxCell id="4iAux4aXh2Ygba42_RWY-43" value="prev" style="rounded=0;whiteSpace=wrap;html=1;" vertex="1" parent="1">
          <mxGeometry x="500" y="325" width="120" height="40" as="geometry" />
        </mxCell>
        <mxCell id="4iAux4aXh2Ygba42_RWY-44" value="n" style="rounded=0;whiteSpace=wrap;html=1;" vertex="1" parent="1">
          <mxGeometry x="160" y="240" width="120" height="40" as="geometry" />
        </mxCell>
        <mxCell id="4iAux4aXh2Ygba42_RWY-45" value="next" style="rounded=0;whiteSpace=wrap;html=1;" vertex="1" parent="1">
          <mxGeometry x="160" y="280" width="120" height="40" as="geometry" />
        </mxCell>
        <mxCell id="4iAux4aXh2Ygba42_RWY-46" value="prev" style="rounded=0;whiteSpace=wrap;html=1;" vertex="1" parent="1">
          <mxGeometry x="160" y="320" width="120" height="40" as="geometry" />
        </mxCell>
        <mxCell id="4iAux4aXh2Ygba42_RWY-47" value="NULL" style="text;html=1;strokeColor=none;fillColor=none;align=center;verticalAlign=middle;whiteSpace=wrap;rounded=0;" vertex="1" parent="1">
          <mxGeometry x="680" y="290" width="60" height="30" as="geometry" />
        </mxCell>
        <mxCell id="4iAux4aXh2Ygba42_RWY-49" value="n" style="rounded=0;whiteSpace=wrap;html=1;" vertex="1" parent="1">
          <mxGeometry x="500" y="425" width="120" height="40" as="geometry" />
        </mxCell>
        <mxCell id="4iAux4aXh2Ygba42_RWY-50" value="Head" style="text;html=1;strokeColor=none;fillColor=none;align=center;verticalAlign=middle;whiteSpace=wrap;rounded=0;" vertex="1" parent="1">
          <mxGeometry x="525" y="395" width="60" height="30" as="geometry" />
        </mxCell>
        <mxCell id="4iAux4aXh2Ygba42_RWY-51" value="New node" style="text;html=1;strokeColor=none;fillColor=none;align=center;verticalAlign=middle;whiteSpace=wrap;rounded=0;" vertex="1" parent="1">
          <mxGeometry x="190" y="390" width="60" height="30" as="geometry" />
        </mxCell>
        <mxCell id="4iAux4aXh2Ygba42_RWY-52" style="edgeStyle=orthogonalEdgeStyle;rounded=0;orthogonalLoop=1;jettySize=auto;html=1;exitX=1;exitY=0.5;exitDx=0;exitDy=0;" edge="1" parent="1" source="4iAux4aXh2Ygba42_RWY-53">
          <mxGeometry relative="1" as="geometry">
            <mxPoint x="690" y="485" as="targetPoint" />
          </mxGeometry>
        </mxCell>
        <mxCell id="4iAux4aXh2Ygba42_RWY-53" value="next" style="rounded=0;whiteSpace=wrap;html=1;" vertex="1" parent="1">
          <mxGeometry x="500" y="465" width="120" height="40" as="geometry" />
        </mxCell>
        <mxCell id="4iAux4aXh2Ygba42_RWY-54" style="edgeStyle=orthogonalEdgeStyle;rounded=0;orthogonalLoop=1;jettySize=auto;html=1;exitX=0;exitY=0.5;exitDx=0;exitDy=0;entryX=1;entryY=0.5;entryDx=0;entryDy=0;" edge="1" parent="1" source="4iAux4aXh2Ygba42_RWY-55" target="4iAux4aXh2Ygba42_RWY-56">
          <mxGeometry relative="1" as="geometry">
            <mxPoint x="440" y="525" as="targetPoint" />
          </mxGeometry>
        </mxCell>
        <mxCell id="4iAux4aXh2Ygba42_RWY-55" value="prev" style="rounded=0;whiteSpace=wrap;html=1;" vertex="1" parent="1">
          <mxGeometry x="500" y="505" width="120" height="40" as="geometry" />
        </mxCell>
        <mxCell id="4iAux4aXh2Ygba42_RWY-56" value="n" style="rounded=0;whiteSpace=wrap;html=1;" vertex="1" parent="1">
          <mxGeometry x="160" y="420" width="120" height="40" as="geometry" />
        </mxCell>
        <mxCell id="4iAux4aXh2Ygba42_RWY-57" value="next" style="rounded=0;whiteSpace=wrap;html=1;" vertex="1" parent="1">
          <mxGeometry x="160" y="460" width="120" height="40" as="geometry" />
        </mxCell>
        <mxCell id="4iAux4aXh2Ygba42_RWY-61" style="edgeStyle=orthogonalEdgeStyle;rounded=0;orthogonalLoop=1;jettySize=auto;html=1;exitX=0;exitY=0.5;exitDx=0;exitDy=0;" edge="1" parent="1" source="4iAux4aXh2Ygba42_RWY-58" target="4iAux4aXh2Ygba42_RWY-60">
          <mxGeometry relative="1" as="geometry" />
        </mxCell>
        <mxCell id="4iAux4aXh2Ygba42_RWY-58" value="prev" style="rounded=0;whiteSpace=wrap;html=1;" vertex="1" parent="1">
          <mxGeometry x="160" y="500" width="120" height="40" as="geometry" />
        </mxCell>
        <mxCell id="4iAux4aXh2Ygba42_RWY-59" value="NULL" style="text;html=1;strokeColor=none;fillColor=none;align=center;verticalAlign=middle;whiteSpace=wrap;rounded=0;" vertex="1" parent="1">
          <mxGeometry x="680" y="470" width="60" height="30" as="geometry" />
        </mxCell>
        <mxCell id="4iAux4aXh2Ygba42_RWY-60" value="NULL" style="text;html=1;strokeColor=none;fillColor=none;align=center;verticalAlign=middle;whiteSpace=wrap;rounded=0;" vertex="1" parent="1">
          <mxGeometry x="53" y="505" width="60" height="30" as="geometry" />
        </mxCell>
        <mxCell id="4iAux4aXh2Ygba42_RWY-62" value="n" style="rounded=0;whiteSpace=wrap;html=1;" vertex="1" parent="1">
          <mxGeometry x="510" y="915" width="120" height="40" as="geometry" />
        </mxCell>
        <mxCell id="4iAux4aXh2Ygba42_RWY-63" value="&lt;strike&gt;Head&lt;/strike&gt;" style="text;html=1;strokeColor=none;fillColor=none;align=center;verticalAlign=middle;whiteSpace=wrap;rounded=0;" vertex="1" parent="1">
          <mxGeometry x="535" y="885" width="60" height="30" as="geometry" />
        </mxCell>
        <mxCell id="4iAux4aXh2Ygba42_RWY-64" value="&lt;strike&gt;New node&lt;/strike&gt;" style="text;html=1;strokeColor=none;fillColor=none;align=center;verticalAlign=middle;whiteSpace=wrap;rounded=0;" vertex="1" parent="1">
          <mxGeometry x="200" y="880" width="60" height="30" as="geometry" />
        </mxCell>
        <mxCell id="4iAux4aXh2Ygba42_RWY-65" style="edgeStyle=orthogonalEdgeStyle;rounded=0;orthogonalLoop=1;jettySize=auto;html=1;exitX=1;exitY=0.5;exitDx=0;exitDy=0;" edge="1" parent="1" source="4iAux4aXh2Ygba42_RWY-66">
          <mxGeometry relative="1" as="geometry">
            <mxPoint x="700" y="975" as="targetPoint" />
          </mxGeometry>
        </mxCell>
        <mxCell id="4iAux4aXh2Ygba42_RWY-66" value="next" style="rounded=0;whiteSpace=wrap;html=1;" vertex="1" parent="1">
          <mxGeometry x="510" y="955" width="120" height="40" as="geometry" />
        </mxCell>
        <mxCell id="4iAux4aXh2Ygba42_RWY-67" style="edgeStyle=orthogonalEdgeStyle;rounded=0;orthogonalLoop=1;jettySize=auto;html=1;exitX=0;exitY=0.5;exitDx=0;exitDy=0;entryX=1;entryY=0.5;entryDx=0;entryDy=0;" edge="1" parent="1" source="4iAux4aXh2Ygba42_RWY-68" target="4iAux4aXh2Ygba42_RWY-69">
          <mxGeometry relative="1" as="geometry" />
        </mxCell>
        <mxCell id="4iAux4aXh2Ygba42_RWY-68" value="prev" style="rounded=0;whiteSpace=wrap;html=1;" vertex="1" parent="1">
          <mxGeometry x="510" y="995" width="120" height="40" as="geometry" />
        </mxCell>
        <mxCell id="4iAux4aXh2Ygba42_RWY-69" value="n" style="rounded=0;whiteSpace=wrap;html=1;" vertex="1" parent="1">
          <mxGeometry x="170" y="910" width="120" height="40" as="geometry" />
        </mxCell>
        <mxCell id="4iAux4aXh2Ygba42_RWY-70" style="edgeStyle=orthogonalEdgeStyle;rounded=0;orthogonalLoop=1;jettySize=auto;html=1;exitX=1;exitY=0.5;exitDx=0;exitDy=0;entryX=0;entryY=0.5;entryDx=0;entryDy=0;" edge="1" parent="1" source="4iAux4aXh2Ygba42_RWY-71" target="4iAux4aXh2Ygba42_RWY-62">
          <mxGeometry relative="1" as="geometry">
            <Array as="points">
              <mxPoint x="380" y="970" />
              <mxPoint x="380" y="935" />
            </Array>
          </mxGeometry>
        </mxCell>
        <mxCell id="4iAux4aXh2Ygba42_RWY-71" value="next" style="rounded=0;whiteSpace=wrap;html=1;" vertex="1" parent="1">
          <mxGeometry x="170" y="950" width="120" height="40" as="geometry" />
        </mxCell>
        <mxCell id="4iAux4aXh2Ygba42_RWY-72" style="edgeStyle=orthogonalEdgeStyle;rounded=0;orthogonalLoop=1;jettySize=auto;html=1;exitX=0;exitY=0.5;exitDx=0;exitDy=0;" edge="1" parent="1" source="4iAux4aXh2Ygba42_RWY-73">
          <mxGeometry relative="1" as="geometry">
            <mxPoint x="130" y="1010" as="targetPoint" />
          </mxGeometry>
        </mxCell>
        <mxCell id="4iAux4aXh2Ygba42_RWY-73" value="prev" style="rounded=0;whiteSpace=wrap;html=1;" vertex="1" parent="1">
          <mxGeometry x="170" y="990" width="120" height="40" as="geometry" />
        </mxCell>
        <mxCell id="4iAux4aXh2Ygba42_RWY-74" value="NULL" style="text;html=1;strokeColor=none;fillColor=none;align=center;verticalAlign=middle;whiteSpace=wrap;rounded=0;" vertex="1" parent="1">
          <mxGeometry x="690" y="960" width="60" height="30" as="geometry" />
        </mxCell>
        <mxCell id="4iAux4aXh2Ygba42_RWY-75" value="NULL" style="text;html=1;strokeColor=none;fillColor=none;align=center;verticalAlign=middle;whiteSpace=wrap;rounded=0;" vertex="1" parent="1">
          <mxGeometry x="80" y="996" width="60" height="30" as="geometry" />
        </mxCell>
        <mxCell id="4iAux4aXh2Ygba42_RWY-76" value="Head" style="text;html=1;strokeColor=none;fillColor=none;align=center;verticalAlign=middle;whiteSpace=wrap;rounded=0;" vertex="1" parent="1">
          <mxGeometry x="250" y="881" width="60" height="30" as="geometry" />
        </mxCell>
      </root>
    </mxGraphModel>
  </diagram>
</mxfile>
